<?xml version="1.0" standalone="no"?>
<!DOCTYPE svg PUBLIC "-//W3C//DTD SVG 20010904//EN"
 "http://www.w3.org/TR/2001/REC-SVG-20010904/DTD/svg10.dtd">
<svg version="1.0" xmlns="http://www.w3.org/2000/svg"
 width="32.000000pt" height="32.000000pt" viewBox="0 0 32.000000 32.000000"
 preserveAspectRatio="xMidYMid meet">

<g transform="translate(0.000000,32.000000) scale(0.100000,-0.100000)"
fill="#000000" stroke="none">
<path d="M88 151 l33 -6 -40 -40 c-23 -21 -41 -43 -41 -47 0 -4 25 -8 55 -8
48 0 57 3 64 22 l8 22 14 -22 c10 -16 23 -22 50 -22 32 0 39 4 53 35 24 50 14
75 -30 75 -28 0 -34 -4 -35 -22 l0 -23 -9 22 c-8 19 -16 21 -82 21 -48 -1 -62
-3 -40 -7z m107 -21 c0 -8 -8 -16 -17 -18 -13 -2 -18 3 -18 18 0 15 5 20 18
18 9 -2 17 -10 17 -18z m69 14 c20 -8 20 -28 0 -59 -22 -34 -34 -31 -30 8 2
17 4 38 5 45 1 14 3 14 25 6z m-124 -42 c0 -37 0 -37 -41 -38 l-41 -1 38 38
c21 22 39 39 41 39 2 0 3 -17 3 -38z m80 -23 c0 -19 -1 -19 -16 -5 -8 9 -12
20 -9 26 9 15 25 2 25 -21z"/>
</g>
</svg>
